<?xml version="1.0" standalone="no"?><svg xmlns="http://www.w3.org/2000/svg" viewBox="0 0 1440 320"><path fill="#fdde6c" fill-opacity="1" d="M0,128L40,154.7C80,181,160,235,240,234.7C320,235,400,181,480,138.7C560,96,640,64,720,53.3C800,43,880,53,960,80C1040,107,1120,149,1200,149.3C1280,149,1360,107,1400,85.3L1440,64L1440,320L1400,320C1360,320,1280,320,1200,320C1120,320,1040,320,960,320C880,320,800,320,720,320C640,320,560,320,480,320C400,320,320,320,240,320C160,320,80,320,40,320L0,320Z"></path></svg>